<svg width="31" height="31" viewBox="0 0 31 31" fill="none" xmlns="http://www.w3.org/2000/svg">
<path d="M26.6146 5.89062H21.6927V4.01562C21.6927 3.88672 21.5873 3.78125 21.4584 3.78125H19.8177C19.6888 3.78125 19.5834 3.88672 19.5834 4.01562V5.89062H12.0834V4.01562C12.0834 3.88672 11.9779 3.78125 11.849 3.78125H10.2084C10.0795 3.78125 9.974 3.88672 9.974 4.01562V5.89062H5.05212C4.53357 5.89062 4.11462 6.30957 4.11462 6.82812V26.2812C4.11462 26.7998 4.53357 27.2188 5.05212 27.2188H26.6146C27.1332 27.2188 27.5521 26.7998 27.5521 26.2812V6.82812C27.5521 6.30957 27.1332 5.89062 26.6146 5.89062ZM25.4427 25.1094H6.224V13.9766H25.4427V25.1094ZM6.224 11.9844V8H9.974V9.40625C9.974 9.53516 10.0795 9.64062 10.2084 9.64062H11.849C11.9779 9.64062 12.0834 9.53516 12.0834 9.40625V8H19.5834V9.40625C19.5834 9.53516 19.6888 9.64062 19.8177 9.64062H21.4584C21.5873 9.64062 21.6927 9.53516 21.6927 9.40625V8H25.4427V11.9844H6.224Z" fill="white"/>
</svg>
