<svg width="31" height="31" viewBox="0 0 31 31" fill="none" xmlns="http://www.w3.org/2000/svg">
<path d="M20.6562 9.64062V8.23438C20.6562 8.10547 20.5508 8 20.4219 8H9.17187C9.04297 8 8.9375 8.10547 8.9375 8.23438V9.64062C8.9375 9.76953 9.04297 9.875 9.17187 9.875H20.4219C20.5508 9.875 20.6562 9.76953 20.6562 9.64062ZM9.17187 12.2188C9.04297 12.2188 8.9375 12.3242 8.9375 12.4531V13.8594C8.9375 13.9883 9.04297 14.0938 9.17187 14.0938H14.5625C14.6914 14.0938 14.7969 13.9883 14.7969 13.8594V12.4531C14.7969 12.3242 14.6914 12.2188 14.5625 12.2188H9.17187ZM13.3906 25.4609H6.59375V4.83594H23V14.9141C23 15.043 23.1055 15.1484 23.2344 15.1484H24.875C25.0039 15.1484 25.1094 15.043 25.1094 14.9141V3.66406C25.1094 3.14551 24.6904 2.72656 24.1719 2.72656H5.42187C4.90332 2.72656 4.48438 3.14551 4.48438 3.66406V26.6328C4.48438 27.1514 4.90332 27.5703 5.42187 27.5703H13.3906C13.5195 27.5703 13.625 27.4648 13.625 27.3359V25.6953C13.625 25.5664 13.5195 25.4609 13.3906 25.4609ZM26.4482 26.9697L23.7148 24.2363C24.3682 23.3721 24.7578 22.2939 24.7578 21.125C24.7578 18.2773 22.4492 15.9688 19.6016 15.9688C16.7539 15.9688 14.4453 18.2773 14.4453 21.125C14.4453 23.9727 16.7539 26.2812 19.6016 26.2812C20.6504 26.2812 21.623 25.9678 22.4375 25.4316L25.2119 28.2061C25.2588 28.2529 25.3174 28.2734 25.376 28.2734C25.4346 28.2734 25.4961 28.25 25.54 28.2061L26.4482 27.2979C26.4699 27.2763 26.487 27.2508 26.4987 27.2226C26.5104 27.1945 26.5164 27.1643 26.5164 27.1338C26.5164 27.1033 26.5104 27.0731 26.4987 27.045C26.487 27.0168 26.4699 26.9912 26.4482 26.9697ZM19.6016 24.4062C17.7881 24.4062 16.3203 22.9385 16.3203 21.125C16.3203 19.3115 17.7881 17.8438 19.6016 17.8438C21.415 17.8438 22.8828 19.3115 22.8828 21.125C22.8828 22.9385 21.415 24.4062 19.6016 24.4062Z" fill="#E33535"/>
</svg>
