<svg width="31" height="31" viewBox="0 0 31 31" fill="none" xmlns="http://www.w3.org/2000/svg">
<path d="M27.8967 15.2966L16.5764 3.98213L15.8176 3.22334C15.6447 3.05159 15.4109 2.9552 15.1672 2.9552C14.9235 2.9552 14.6897 3.05159 14.5168 3.22334L2.43774 15.2966C2.26059 15.473 2.12058 15.6832 2.02598 15.9147C1.93138 16.1461 1.88411 16.3942 1.88696 16.6442C1.89868 17.6755 2.75708 18.4987 3.78833 18.4987H5.03345V28.0407H25.301V18.4987H26.5725C27.0735 18.4987 27.5452 18.3024 27.8997 17.948C28.0742 17.774 28.2125 17.5671 28.3065 17.3393C28.4006 17.1115 28.4485 16.8673 28.4475 16.6208C28.4475 16.1228 28.2512 15.6511 27.8967 15.2966ZM16.8079 25.9313H13.5266V19.9548H16.8079V25.9313ZM23.1917 16.3894V25.9313H18.6829V19.2517C18.6829 18.6042 18.1584 18.0798 17.511 18.0798H12.8235C12.176 18.0798 11.6516 18.6042 11.6516 19.2517V25.9313H7.14282V16.3894H4.33032L15.1702 5.5583L15.8469 6.23506L26.0071 16.3894H23.1917Z" fill="white"/>
</svg>
