<svg width="31" height="31" viewBox="0 0 31 31" fill="none" xmlns="http://www.w3.org/2000/svg">
<g id="Icon / ContainerOutlined">
<path id="Vector" d="M24.5417 2.375H5.79169C5.27313 2.375 4.85419 2.79395 4.85419 3.3125V27.6875C4.85419 28.2061 5.27313 28.625 5.79169 28.625H24.5417C25.0602 28.625 25.4792 28.2061 25.4792 27.6875V3.3125C25.4792 2.79395 25.0602 2.375 24.5417 2.375ZM23.3698 26.5156H6.96356V20.627H9.83173C10.1716 21.5879 10.7692 22.4521 11.5632 23.1084C12.5739 23.9434 13.8542 24.4062 15.1667 24.4062C16.4792 24.4062 17.7595 23.9463 18.7702 23.1084C19.5641 22.4521 20.1618 21.5879 20.5016 20.627H23.3698V18.7812H19.0222L18.8698 19.5049C18.5183 21.2568 16.9597 22.5312 15.1667 22.5312C13.3737 22.5312 11.8151 21.2568 11.4606 19.5049L11.3083 18.7812H6.96356V4.48438H23.3698V26.5156ZM9.54169 10.4902H20.7917C20.9206 10.4902 21.0261 10.3848 21.0261 10.2559V8.84961C21.0261 8.7207 20.9206 8.61523 20.7917 8.61523H9.54169C9.41278 8.61523 9.30731 8.7207 9.30731 8.84961V10.2559C9.30731 10.3848 9.41278 10.4902 9.54169 10.4902ZM9.54169 15.1777H20.7917C20.9206 15.1777 21.0261 15.0723 21.0261 14.9434V13.5371C21.0261 13.4082 20.9206 13.3027 20.7917 13.3027H9.54169C9.41278 13.3027 9.30731 13.4082 9.30731 13.5371V14.9434C9.30731 15.0723 9.41278 15.1777 9.54169 15.1777Z" fill="#E33535"/>
</g>
</svg>
