<svg width="50" height="50" viewBox="0 0 50 50" fill="none" xmlns="http://www.w3.org/2000/svg">
<path d="M0 4.08609C0 1.82941 1.8294 0 4.08608 0H45.9139C48.1706 0 50 1.8294 50 4.08608V45.9139C50 48.1706 48.1706 50 45.9139 50H4.08609C1.82941 50 0 48.1706 0 45.9139V4.08609Z" fill="white"/>
<path d="M12.8662 11.6111C12.4083 10.0984 13.2635 8.50113 14.7761 8.04334C16.2888 7.58555 17.8861 8.44057 18.3439 9.95331C18.8017 11.4659 17.9466 13.0633 16.434 13.5211C14.9213 13.9789 13.324 13.1238 12.8662 11.6111ZM19.8134 9.50859C19.11 7.18437 16.6556 5.87036 14.3314 6.57378C12.0072 7.27719 10.6933 9.73163 11.3967 12.0559C12.1001 14.38 14.5544 15.6939 16.8787 14.9905C19.2029 14.287 20.5168 11.8327 19.8134 9.50859Z" fill="#E33535"/>
<path d="M12.8662 11.6111C12.4083 10.0984 13.2635 8.50113 14.7761 8.04334C16.2888 7.58555 17.8861 8.44057 18.3439 9.95331C18.8017 11.4659 17.9466 13.0633 16.434 13.5211C14.9213 13.9789 13.324 13.1238 12.8662 11.6111ZM19.8134 9.50859C19.11 7.18437 16.6556 5.87036 14.3314 6.57378C12.0072 7.27719 10.6933 9.73163 11.3967 12.0559C12.1001 14.38 14.5544 15.6939 16.8787 14.9905C19.2029 14.287 20.5168 11.8327 19.8134 9.50859Z" fill="#E33535"/>
<path d="M20.9309 19.3991C22.2393 18.5178 24.2778 20.012 24.2778 20.012L21.1119 9.55131C21.1119 9.55131 18.2274 11.3949 16.6499 11.3871C15.3695 11.3807 12.5048 10.9626 11.1868 11.3615C7.69418 12.4185 5.7197 16.1068 6.77665 19.5992C7.83373 23.092 11.522 25.0662 15.0146 24.0092C17.3037 23.3164 19.8689 20.1146 20.9309 19.3991Z" fill="#E33535"/>
<path d="M20.9309 19.3991C22.2393 18.5178 24.2778 20.012 24.2778 20.012L21.1119 9.55131C21.1119 9.55131 18.2274 11.3949 16.6499 11.3871C15.3695 11.3807 12.5048 10.9626 11.1868 11.3615C7.69418 12.4185 5.7197 16.1068 6.77665 19.5992C7.83373 23.092 11.522 25.0662 15.0146 24.0092C17.3037 23.3164 19.8689 20.1146 20.9309 19.3991Z" fill="#E33535"/>
<path d="M8.70605 19.4043C8.70605 19.4043 10.2695 24.5701 16.2533 21.787L8.70605 19.4043Z" fill="#E33535"/>
<path d="M8.70605 19.4043C8.70605 19.4043 10.2695 24.5701 16.2533 21.787L8.70605 19.4043Z" fill="#E33535"/>
<path d="M45.1365 31.2016C45.1365 39.7035 34.902 44.7 34.902 44.7C34.902 44.7 24.6675 39.7035 24.6675 31.2016C24.6675 28.2865 27.0308 25.9231 29.9459 25.9231C32.2212 25.9231 34.1607 27.3634 34.902 29.3815C35.6435 27.3634 37.5828 25.9231 39.8581 25.9231C42.7734 25.9231 45.1365 28.2865 45.1365 31.2016Z" fill="#E33535"/>
<path d="M29.9864 20.7815C30.5813 21.5892 30.3932 22.7378 29.5662 23.3469C28.7392 23.9559 27.5866 23.7949 26.9916 22.9871C26.1201 21.8039 26.5088 20.1174 25.2868 18.1706C27.2081 18.6844 28.8274 19.2079 29.9864 20.7815Z" fill="#E33535"/>
<path d="M32.3597 16.4661C33.3409 16.6753 33.9627 17.6591 33.7485 18.6636C33.5344 19.6681 32.5655 20.3129 31.5843 20.1037C30.147 19.7974 29.3181 18.2781 27.1119 17.6334C28.8898 16.7421 30.4483 16.0587 32.3597 16.4661Z" fill="#E33535"/>
</svg>
