<svg width="16" height="16" viewBox="0 0 16 16" fill="none" xmlns="http://www.w3.org/2000/svg">
<path d="M12.176 3.07241C10.7041 1.60054 8.30722 1.60054 6.8369 3.07241L2.75878 7.14741C2.73222 7.17397 2.71815 7.20991 2.71815 7.24741C2.71815 7.28491 2.73222 7.32085 2.75878 7.34741L3.33534 7.92397C3.3617 7.95021 3.39737 7.96494 3.43456 7.96494C3.47175 7.96494 3.50742 7.95021 3.53378 7.92397L7.6119 3.84897C8.11815 3.34272 8.79159 3.0646 9.50722 3.0646C10.2228 3.0646 10.8963 3.34272 11.401 3.84897C11.9072 4.35522 12.1853 5.02866 12.1853 5.74272C12.1853 6.45835 11.9072 7.13022 11.401 7.63647L7.24472 11.7912L6.57128 12.4646C5.94159 13.0943 4.91815 13.0943 4.28847 12.4646C3.98378 12.1599 3.81659 11.7552 3.81659 11.324C3.81659 10.8927 3.98378 10.488 4.28847 10.1833L8.4119 6.06147C8.51659 5.95835 8.65409 5.90054 8.80097 5.90054H8.80253C8.9494 5.90054 9.08534 5.95835 9.18847 6.06147C9.29315 6.16616 9.3494 6.30366 9.3494 6.45054C9.3494 6.59585 9.29159 6.73335 9.18847 6.83647L5.81815 10.2037C5.79159 10.2302 5.77753 10.2662 5.77753 10.3037C5.77753 10.3412 5.79159 10.3771 5.81815 10.4037L6.39472 10.9802C6.42107 11.0065 6.45675 11.0212 6.49394 11.0212C6.53112 11.0212 6.5668 11.0065 6.59315 10.9802L9.9619 7.61147C10.2728 7.30054 10.4432 6.88804 10.4432 6.44897C10.4432 6.00991 10.2713 5.59585 9.9619 5.28647C9.31972 4.64429 8.27597 4.64585 7.63378 5.28647L7.23378 5.68804L3.5119 9.40835C3.2593 9.65947 3.05906 9.95825 2.9228 10.2874C2.78655 10.6165 2.71699 10.9693 2.71815 11.3255C2.71815 12.049 3.00097 12.7287 3.5119 13.2396C4.04159 13.7677 4.73534 14.0318 5.42909 14.0318C6.12284 14.0318 6.81659 13.7677 7.34472 13.2396L12.176 8.41147C12.8869 7.69897 13.2807 6.75054 13.2807 5.74272C13.2822 4.73335 12.8885 3.78491 12.176 3.07241Z" fill="white"/>
</svg>
