<svg width="17" height="16" viewBox="0 0 17 16" fill="none" xmlns="http://www.w3.org/2000/svg">
<path d="M6.75 4.96466H7.90469V10.2506C7.90469 10.3193 7.96094 10.3756 8.02969 10.3756H8.96719C9.03594 10.3756 9.09219 10.3193 9.09219 10.2506V4.96466H10.25C10.3547 4.96466 10.4125 4.84435 10.3484 4.7631L8.59844 2.54747C8.58674 2.53253 8.5718 2.52045 8.55475 2.51214C8.53769 2.50383 8.51897 2.49951 8.5 2.49951C8.48103 2.49951 8.46231 2.50383 8.44525 2.51214C8.42819 2.52045 8.41326 2.53253 8.40156 2.54747L6.65156 4.76154C6.5875 4.84435 6.64531 4.96466 6.75 4.96466ZM14.2188 9.78185H13.2812C13.2125 9.78185 13.1562 9.8381 13.1562 9.90685V12.3131H3.84375V9.90685C3.84375 9.8381 3.7875 9.78185 3.71875 9.78185H2.78125C2.7125 9.78185 2.65625 9.8381 2.65625 9.90685V13.0006C2.65625 13.2772 2.87969 13.5006 3.15625 13.5006H13.8438C14.1203 13.5006 14.3438 13.2772 14.3438 13.0006V9.90685C14.3438 9.8381 14.2875 9.78185 14.2188 9.78185Z" fill="white"/>
</svg>
